<svg viewBox="0 0 600 400" xmlns="http://www.w3.org/2000/svg">
  <rect width="600" height="400" fill="#87ceeb"/>
  <!-- North America -->
  <path d="M50 60 L150 40 L200 100 L160 140 L120 160 L80 120 Z" fill="#c8e6c9"/>
  <!-- South America -->
  <path d="M120 160 L160 180 L180 260 L140 350 L100 300 Z" fill="#c8e6c9"/>
  <!-- Europe/Asia -->
  <path d="M220 60 L560 60 L580 140 L520 180 L400 160 L300 140 L250 100 Z" fill="#c8e6c9"/>
  <!-- Africa -->
  <path d="M300 140 L360 180 L380 260 L340 340 L300 280 L280 200 Z" fill="#c8e6c9"/>
  <!-- Australia -->
  <path d="M470 260 L540 260 L560 300 L520 340 L460 320 Z" fill="#c8e6c9"/>
</svg>
